<svg xmlns:xlink="http://www.w3.org/1999/xlink" width="43.125" xmlns="http://www.w3.org/2000/svg" height="43.125" id="screenshot-2ba07862-3b7d-80ff-8004-130a360a78e2" viewBox="4828.438 539.438 43.125 43.125" style="-webkit-print-color-adjust: exact;" fill="none" version="1.1"><g id="shape-2ba07862-3b7d-80ff-8004-130a360a78e2"><g class="fills" id="fills-2ba07862-3b7d-80ff-8004-130a360a78e2"><path rx="0" ry="0" d="M4868.750,539.438L4831.250,539.438C4829.697,539.439,4828.439,540.697,4828.438,542.250L4828.438,579.750C4828.439,581.303,4829.697,582.561,4831.250,582.563L4868.750,582.563C4870.303,582.561,4871.561,581.303,4871.563,579.750L4871.563,542.250C4871.561,540.697,4870.303,539.439,4868.750,539.438ZZM4869.688,579.750C4869.687,580.268,4869.268,580.687,4868.750,580.688L4831.250,580.688C4830.732,580.687,4830.313,580.268,4830.313,579.750L4830.313,542.250C4830.313,541.732,4830.732,541.313,4831.250,541.313L4868.750,541.313C4869.268,541.313,4869.687,541.732,4869.688,542.250ZM4841.563,557.250L4841.563,572.250C4841.563,572.768,4841.143,573.188,4840.625,573.188C4840.107,573.188,4839.688,572.768,4839.688,572.250L4839.688,557.250C4839.688,556.732,4840.107,556.313,4840.625,556.313C4841.143,556.313,4841.563,556.732,4841.563,557.250ZZM4862.188,563.813L4862.188,572.250C4862.188,572.768,4861.768,573.188,4861.250,573.188C4860.732,573.188,4860.313,572.768,4860.313,572.250L4860.313,563.813C4860.313,560.706,4857.794,558.188,4854.688,558.188C4851.581,558.188,4849.063,560.706,4849.063,563.813L4849.063,572.250C4849.063,572.768,4848.643,573.188,4848.125,573.188C4847.607,573.188,4847.188,572.768,4847.188,572.250L4847.188,557.250C4847.188,556.732,4847.607,556.313,4848.125,556.313C4848.643,556.313,4849.063,556.732,4849.063,557.250L4849.063,558.860C4851.122,556.516,4854.419,555.694,4857.339,556.795C4860.258,557.897,4862.189,560.692,4862.188,563.813ZZM4842.500,549.750C4842.500,550.786,4841.661,551.625,4840.625,551.625C4839.589,551.625,4838.750,550.786,4838.750,549.750C4838.750,548.714,4839.589,547.875,4840.625,547.875C4841.660,547.876,4842.499,548.715,4842.500,549.750ZZ" style="fill: rgb(27, 31, 36); fill-opacity: 1;"/></g></g></svg>