<?xml version="1.0" encoding="UTF-8" standalone="no"?>
<!-- Created with Inkscape (http://www.inkscape.org/) -->

<svg
   version="1.1"
   id="svg1"
   width="666.66669"
   height="666.66669"
   viewBox="0 0 666.66669 666.66669"
   sodipodi:docname="DefaultImage.ai"
   inkscape:version="1.3.2 (091e20ef0f, 2023-11-25)"
   xmlns:inkscape="http://www.inkscape.org/namespaces/inkscape"
   xmlns:sodipodi="http://sodipodi.sourceforge.net/DTD/sodipodi-0.dtd"
   xmlns="http://www.w3.org/2000/svg"
   xmlns:svg="http://www.w3.org/2000/svg">
  <defs
     id="defs1">
    <clipPath
       clipPathUnits="userSpaceOnUse"
       id="clipPath20">
      <path
         d="M 0,500 H 500 V 0 H 0 Z"
         transform="translate(-247.57471,-328.57961)"
         id="path20" />
    </clipPath>
    <clipPath
       clipPathUnits="userSpaceOnUse"
       id="clipPath22">
      <path
         d="M 0,500 H 500 V 0 H 0 Z"
         transform="translate(-109.30131,-140.9897)"
         id="path22" />
    </clipPath>
    <clipPath
       clipPathUnits="userSpaceOnUse"
       id="clipPath24">
      <path
         d="M 0,500 H 500 V 0 H 0 Z"
         transform="translate(-218.3521,-289.17531)"
         id="path24" />
    </clipPath>
    <clipPath
       clipPathUnits="userSpaceOnUse"
       id="clipPath26">
      <path
         d="M 0,500 H 500 V 0 H 0 Z"
         transform="translate(-292.81741,-243.4419)"
         id="path26" />
    </clipPath>
    <clipPath
       clipPathUnits="userSpaceOnUse"
       id="clipPath28">
      <path
         d="M 0,500 H 500 V 0 H 0 Z"
         transform="translate(-102.3462,-123.6548)"
         id="path28" />
    </clipPath>
    <clipPath
       clipPathUnits="userSpaceOnUse"
       id="clipPath30">
      <path
         d="M 0,500 H 500 V 0 H 0 Z"
         transform="translate(-292.81741,-243.4419)"
         id="path30" />
    </clipPath>
    <clipPath
       clipPathUnits="userSpaceOnUse"
       id="clipPath32">
      <path
         d="M 0,500 H 500 V 0 H 0 Z"
         transform="translate(-265.0684,-374.80181)"
         id="path32" />
    </clipPath>
    <clipPath
       clipPathUnits="userSpaceOnUse"
       id="clipPath34">
      <path
         d="M 0,500 H 500 V 0 H 0 Z"
         transform="translate(-260.30961,-382.10451)"
         id="path34" />
    </clipPath>
    <clipPath
       clipPathUnits="userSpaceOnUse"
       id="clipPath36">
      <path
         d="M 0,500 H 500 V 0 H 0 Z"
         transform="translate(-307.73441,-415.79151)"
         id="path36" />
    </clipPath>
    <clipPath
       clipPathUnits="userSpaceOnUse"
       id="clipPath38">
      <path
         d="M 0,500 H 500 V 0 H 0 Z"
         transform="translate(-270.57421,-315.57961)"
         id="path38" />
    </clipPath>
    <clipPath
       clipPathUnits="userSpaceOnUse"
       id="clipPath40">
      <path
         d="M 0,500 H 500 V 0 H 0 Z"
         transform="translate(-132.3013,-127.98971)"
         id="path40" />
    </clipPath>
    <clipPath
       clipPathUnits="userSpaceOnUse"
       id="clipPath42">
      <path
         d="M 0,500 H 500 V 0 H 0 Z"
         transform="translate(-241.35211,-276.17531)"
         id="path42" />
    </clipPath>
    <clipPath
       clipPathUnits="userSpaceOnUse"
       id="clipPath44">
      <path
         d="M 0,500 H 500 V 0 H 0 Z"
         transform="translate(-315.81741,-230.44191)"
         id="path44" />
    </clipPath>
    <clipPath
       clipPathUnits="userSpaceOnUse"
       id="clipPath46">
      <path
         d="M 0,500 H 500 V 0 H 0 Z"
         transform="translate(-125.34621,-110.65481)"
         id="path46" />
    </clipPath>
    <clipPath
       clipPathUnits="userSpaceOnUse"
       id="clipPath48">
      <path
         d="M 0,500 H 500 V 0 H 0 Z"
         transform="translate(-315.81741,-230.44191)"
         id="path48" />
    </clipPath>
    <clipPath
       clipPathUnits="userSpaceOnUse"
       id="clipPath50">
      <path
         d="M 0,500 H 500 V 0 H 0 Z"
         transform="translate(-288.06841,-361.80181)"
         id="path50" />
    </clipPath>
    <clipPath
       clipPathUnits="userSpaceOnUse"
       id="clipPath52">
      <path
         d="M 0,500 H 500 V 0 H 0 Z"
         transform="translate(-283.3096,-369.10451)"
         id="path52" />
    </clipPath>
    <clipPath
       clipPathUnits="userSpaceOnUse"
       id="clipPath54">
      <path
         d="M 0,500 H 500 V 0 H 0 Z"
         transform="translate(-330.73441,-402.79151)"
         id="path54" />
    </clipPath>
    <clipPath
       clipPathUnits="userSpaceOnUse"
       id="clipPath56">
      <path
         d="M 0,500 H 500 V 0 H 0 Z"
         transform="translate(-293.57421,-302.57961)"
         id="path56" />
    </clipPath>
    <clipPath
       clipPathUnits="userSpaceOnUse"
       id="clipPath58">
      <path
         d="M 0,500 H 500 V 0 H 0 Z"
         transform="translate(-155.3013,-114.9897)"
         id="path58" />
    </clipPath>
    <clipPath
       clipPathUnits="userSpaceOnUse"
       id="clipPath60">
      <path
         d="M 0,500 H 500 V 0 H 0 Z"
         transform="translate(-264.35251,-263.1753)"
         id="path60" />
    </clipPath>
    <clipPath
       clipPathUnits="userSpaceOnUse"
       id="clipPath62">
      <path
         d="M 0,500 H 500 V 0 H 0 Z"
         transform="translate(-338.81741,-217.44191)"
         id="path62" />
    </clipPath>
    <clipPath
       clipPathUnits="userSpaceOnUse"
       id="clipPath64">
      <path
         d="M 0,500 H 500 V 0 H 0 Z"
         transform="translate(-148.3462,-97.6548)"
         id="path64" />
    </clipPath>
    <clipPath
       clipPathUnits="userSpaceOnUse"
       id="clipPath66">
      <path
         d="M 0,500 H 500 V 0 H 0 Z"
         transform="translate(-338.81741,-217.44191)"
         id="path66" />
    </clipPath>
    <clipPath
       clipPathUnits="userSpaceOnUse"
       id="clipPath68">
      <path
         d="M 0,500 H 500 V 0 H 0 Z"
         transform="translate(-311.06841,-348.80181)"
         id="path68" />
    </clipPath>
    <clipPath
       clipPathUnits="userSpaceOnUse"
       id="clipPath70">
      <path
         d="M 0,500 H 500 V 0 H 0 Z"
         transform="translate(-306.30961,-356.10451)"
         id="path70" />
    </clipPath>
    <clipPath
       clipPathUnits="userSpaceOnUse"
       id="clipPath73">
      <path
         d="M 0,500 H 500 V 0 H 0 Z"
         transform="translate(-317.57421,-288.5796)"
         id="path73" />
    </clipPath>
    <clipPath
       clipPathUnits="userSpaceOnUse"
       id="clipPath74">
      <path
         d="M 169.817,296.653 H 349.991 V 100.99 H 169.817 Z"
         transform="translate(-317.57421,-288.5796)"
         id="path74" />
    </clipPath>
    <clipPath
       clipPathUnits="userSpaceOnUse"
       id="clipPath76">
      <path
         d="M 0,500 H 500 V 0 H 0 Z"
         transform="matrix(1.3333333,0,0,-1.3333333,0,666.66667)"
         id="path76" />
    </clipPath>
    <clipPath
       clipPathUnits="userSpaceOnUse"
       id="clipPath78">
      <path
         d="M 0,500 H 500 V 0 H 0 Z"
         transform="translate(-179.3013,-100.98971)"
         id="path78" />
    </clipPath>
    <clipPath
       clipPathUnits="userSpaceOnUse"
       id="clipPath79">
      <path
         d="m 288.352,251.912 h 14.225 v -15.056 h -14.225 z"
         transform="translate(-288.35251,-249.17531)"
         id="path79" />
    </clipPath>
    <clipPath
       clipPathUnits="userSpaceOnUse"
       id="clipPath81">
      <path
         d="M 0,500 H 500 V 0 H 0 Z"
         transform="matrix(1.3333333,0,0,-1.3333333,0,666.66667)"
         id="path81" />
    </clipPath>
    <clipPath
       clipPathUnits="userSpaceOnUse"
       id="clipPath83">
      <path
         d="M 0,500 H 500 V 0 H 0 Z"
         transform="translate(-362.81741,-203.44191)"
         id="path83" />
    </clipPath>
    <clipPath
       clipPathUnits="userSpaceOnUse"
       id="clipPath85">
      <path
         d="M 0,500 H 500 V 0 H 0 Z"
         transform="translate(-172.3462,-83.654805)"
         id="path85" />
    </clipPath>
    <clipPath
       clipPathUnits="userSpaceOnUse"
       id="clipPath87">
      <path
         d="M 0,500 H 500 V 0 H 0 Z"
         transform="translate(-362.81741,-203.44191)"
         id="path87" />
    </clipPath>
    <clipPath
       clipPathUnits="userSpaceOnUse"
       id="clipPath89">
      <path
         d="M 0,500 H 500 V 0 H 0 Z"
         transform="translate(-335.06841,-334.80181)"
         id="path89" />
    </clipPath>
    <clipPath
       clipPathUnits="userSpaceOnUse"
       id="clipPath90">
      <path
         d="m 308.965,348.606 h 30.898 v -38.05 h -30.898 z"
         transform="translate(-335.06841,-334.80181)"
         id="path90" />
    </clipPath>
    <clipPath
       clipPathUnits="userSpaceOnUse"
       id="clipPath92">
      <path
         d="M 0,500 H 500 V 0 H 0 Z"
         transform="matrix(1.3333333,0,0,-1.3333333,0,666.66667)"
         id="path92" />
    </clipPath>
    <clipPath
       clipPathUnits="userSpaceOnUse"
       id="clipPath94">
      <path
         d="M 0,500 H 500 V 0 H 0 Z"
         transform="translate(-330.30961,-342.10451)"
         id="path94" />
    </clipPath>
  </defs>
  <sodipodi:namedview
     id="namedview1"
     pagecolor="#ffffff"
     bordercolor="#000000"
     borderopacity="0.25"
     inkscape:showpageshadow="2"
     inkscape:pageopacity="0.0"
     inkscape:pagecheckerboard="0"
     inkscape:deskcolor="#d1d1d1"
     inkscape:zoom="1.2075"
     inkscape:cx="333.74742"
     inkscape:cy="333.33334"
     inkscape:window-width="1920"
     inkscape:window-height="1011"
     inkscape:window-x="0"
     inkscape:window-y="32"
     inkscape:window-maximized="1"
     inkscape:current-layer="layer-MC5">
    <inkscape:page
       x="0"
       y="0"
       inkscape:label="1"
       id="page1"
       width="666.66669"
       height="666.66669"
       margin="43.806667 27.333334 81.486664"
       bleed="0"
       inkscape:export-filename="DefaultImage.ai.svg"
       inkscape:export-xdpi="96"
       inkscape:export-ydpi="96" />
  </sodipodi:namedview>
  <g
     id="layer-MC3"
     inkscape:groupmode="layer"
     inkscape:label="Photos">
    <path
       id="path18"
       d="m 0,0 v -182.04 l -184.921,-106.764 4.171,-8.542 180.75,104.355 8.084,-0.75 V -0.785 Z"
       style="fill:#f0f0f0;fill-opacity:1;fill-rule:nonzero;stroke:none"
       transform="matrix(1.3333333,0,0,-1.3333333,379.64587,94.944667)" />
    <path
       id="path19"
       d="M 0,0 1.51,2.107 -8.048,7.63 -8.115,7.668 -8.119,7.662 c -1.428,0.806 -3.306,0.411 -4.248,-1.039 l -26.339,-40.552 -27.29,23.634 1.128,1.692 -9.459,5.464 -0.008,-0.011 c -1.435,0.873 -3.349,0.5 -4.315,-0.95 l -69.108,-103.74 0.006,-74.272 9.479,-5.478 170.689,104.024 0.001,52.375 z"
       style="fill:#f0f0f0;fill-opacity:1;fill-rule:nonzero;stroke:none"
       transform="matrix(1.3333333,0,0,-1.3333333,330.0996,228.56053)"
       clip-path="url(#clipPath20)" />
    <path
       id="path21"
       d="m 0,0 -0.001,74.274 69.108,103.741 c 1.068,1.603 3.3,1.905 4.756,0.644 l 35.188,-30.473 26.339,40.551 c 1.094,1.685 3.452,1.955 4.9,0.562 l 39.883,-38.376 V 107.16 c 0,-1.941 -1.035,-3.735 -2.716,-4.705 z"
       style="fill:#fafafa;fill-opacity:1;fill-rule:nonzero;stroke:none"
       transform="matrix(1.3333333,0,0,-1.3333333,145.73507,478.6804)"
       clip-path="url(#clipPath22)" />
    <path
       id="path23"
       d="M 0,0 14.225,-12.319 1.778,2.737 Z"
       style="fill:#f0f0f0;fill-opacity:1;fill-rule:nonzero;stroke:none"
       transform="matrix(1.3333333,0,0,-1.3333333,291.13613,281.0996)"
       clip-path="url(#clipPath24)" />
    <path
       id="path25"
       d="m 0,0 c 0,-1.611 -1.132,-3.572 -2.533,-4.377 l -133.284,-76.565 -49.915,-29.225 c -1.389,-0.806 -2.521,-0.152 -2.521,1.459 V 70.194 c 0,0.806 0.28,1.693 0.735,2.487 0.455,0.794 1.085,1.494 1.786,1.891 L -2.533,180.362 C -1.132,181.179 0,180.525 0,178.903 Z m 6.115,188.314 c -0.011,0.105 -0.035,0.222 -0.058,0.315 -0.257,1.436 -1.261,2.965 -2.44,3.654 l -4.435,2.556 c -1.39,0.806 -3.654,0.806 -5.055,0 L -199.949,82.789 c -0.7,-0.409 -1.331,-1.097 -1.798,-1.891 -0.455,-0.794 -0.735,-1.681 -0.735,-2.486 v -191.266 c 0,-1.61 1.132,-3.571 2.533,-4.376 l 4.424,-2.557 c 1.213,-0.7 3.093,-0.794 4.47,-0.268 0.058,0.023 0.117,0.046 0.176,0.07 0.128,0.047 0.268,0.116 0.408,0.198 l 56.156,32.414 137.932,79.636 c 1.389,0.805 2.522,2.766 2.522,4.377 v 191.265 c 0,0.14 -0.012,0.281 -0.024,0.409"
       style="fill:#ffffff;fill-opacity:1;fill-rule:nonzero;stroke:none"
       transform="matrix(1.3333333,0,0,-1.3333333,390.4232,342.07747)"
       clip-path="url(#clipPath26)" />
    <path
       id="path27"
       d="M 0,0 C -0.14,-0.082 -0.28,-0.151 -0.408,-0.198 -0.467,-0.222 -0.525,-0.245 -0.583,-0.268 -1.961,-0.793 -3.84,-0.7 -5.054,0 l -4.424,2.557 c -1.4,0.805 -2.533,2.766 -2.533,4.377 v 191.265 c 0,0.805 0.281,1.693 0.736,2.487 2.777,-1.6 5.987,-3.456 9.478,-5.475 1.54,-0.887 3.128,-1.798 4.75,-2.743 -0.455,-0.794 -0.735,-1.681 -0.735,-2.487 V 11.079 C 2.218,9.468 3.35,8.814 4.739,9.62 Z"
       style="fill:#f0f0f0;fill-opacity:1;fill-rule:nonzero;stroke:none"
       transform="matrix(1.3333333,0,0,-1.3333333,136.4616,501.7936)"
       clip-path="url(#clipPath28)" />
    <path
       id="path29"
       d="m 0,0 c 0,-1.611 -1.132,-3.572 -2.533,-4.377 l -183.199,-105.79 c -1.389,-0.806 -2.521,-0.152 -2.521,1.459 V 70.194 c 0,0.806 0.28,1.693 0.735,2.487 0.455,0.794 1.085,1.494 1.786,1.891 L -2.533,180.362 C -1.132,181.179 0,180.525 0,178.903 Z m 6.115,188.314 c -0.011,0.105 -0.035,0.222 -0.058,0.315 -0.304,1.062 -1.285,1.413 -2.44,0.736 L -190.471,77.303 c -0.7,-0.397 -1.331,-1.097 -1.798,-1.879 -0.455,-0.794 -0.735,-1.693 -0.735,-2.498 l 0.012,-191.254 c 0,-1.377 0.828,-2.054 1.937,-1.727 0.058,0.023 0.117,0.046 0.176,0.07 0.128,0.047 0.268,0.116 0.408,0.198 L 3.617,-7.737 c 1.389,0.805 2.522,2.766 2.522,4.377 v 191.265 c 0,0.14 -0.012,0.281 -0.024,0.409"
       style="fill:#fafafa;fill-opacity:1;fill-rule:nonzero;stroke:none"
       transform="matrix(1.3333333,0,0,-1.3333333,390.4232,342.07747)"
       clip-path="url(#clipPath30)" />
    <path
       id="path31"
       d="m 0,0 4.795,8.137 -8.206,4.782 c -10e-4,0 -0.002,10e-4 -0.003,0.002 l -0.007,0.003 v 0 c -2.404,1.384 -5.725,1.182 -9.391,-0.935 -7.341,-4.239 -13.292,-14.546 -13.292,-23.023 0,-4.18 1.451,-7.127 3.798,-8.54 l -0.003,-0.006 0.073,-0.042 c 0.017,-0.01 0.034,-0.02 0.051,-0.029 l 7.9,-4.595 4.576,7.767 C -4.996,-12.455 -1.269,-6.109 0,0"
       style="fill:#f0f0f0;fill-opacity:1;fill-rule:nonzero;stroke:none"
       transform="matrix(1.3333333,0,0,-1.3333333,353.42453,166.93093)"
       clip-path="url(#clipPath32)" />
    <path
       id="path33"
       d="M 0,0 C 7.341,4.238 13.293,0.803 13.293,-7.674 13.293,-16.151 7.342,-26.459 0,-30.697 -7.341,-34.936 -13.292,-31.5 -13.292,-23.023 -13.292,-14.546 -7.341,-4.238 0,0"
       style="fill:#fafafa;fill-opacity:1;fill-rule:nonzero;stroke:none"
       transform="matrix(1.3333333,0,0,-1.3333333,347.07947,157.194)"
       clip-path="url(#clipPath34)" />
    <path
       id="path35"
       d="m 0,0 v -182.04 l -184.921,-106.764 4.171,-8.542 180.75,104.355 8.084,-0.75 V -0.785 Z"
       style="fill:#ebebeb;fill-opacity:1;fill-rule:nonzero;stroke:none"
       transform="matrix(1.3333333,0,0,-1.3333333,410.31253,112.278)"
       clip-path="url(#clipPath36)" />
    <path
       id="path37"
       d="M 0,0 1.511,2.107 -8.048,7.63 -8.114,7.668 -8.118,7.662 c -1.429,0.806 -3.306,0.411 -4.248,-1.039 l -26.339,-40.552 -27.291,23.634 1.129,1.692 -9.46,5.464 -0.008,-0.011 c -1.435,0.873 -3.348,0.5 -4.314,-0.95 l -69.108,-103.74 0.005,-74.272 9.479,-5.478 170.689,104.024 0.001,52.375 z"
       style="fill:#ebebeb;fill-opacity:1;fill-rule:nonzero;stroke:none"
       transform="matrix(1.3333333,0,0,-1.3333333,360.7656,245.89387)"
       clip-path="url(#clipPath38)" />
    <path
       id="path39"
       d="m 0,0 -0.001,74.274 69.108,103.741 c 1.068,1.603 3.3,1.905 4.756,0.644 l 35.188,-30.473 26.338,40.551 c 1.095,1.685 3.453,1.955 4.901,0.562 l 39.883,-38.376 V 107.16 c 0,-1.941 -1.035,-3.735 -2.716,-4.705 z"
       style="fill:#f5f5f5;fill-opacity:1;fill-rule:nonzero;stroke:none"
       transform="matrix(1.3333333,0,0,-1.3333333,176.40173,496.01373)"
       clip-path="url(#clipPath40)" />
    <path
       id="path41"
       d="M 0,0 14.225,-12.319 1.778,2.737 Z"
       style="fill:#ebebeb;fill-opacity:1;fill-rule:nonzero;stroke:none"
       transform="matrix(1.3333333,0,0,-1.3333333,321.8028,298.43293)"
       clip-path="url(#clipPath42)" />
    <path
       id="path43"
       d="m 0,0 c 0,-1.611 -1.132,-3.572 -2.533,-4.377 l -133.284,-76.565 -49.915,-29.225 c -1.389,-0.806 -2.521,-0.152 -2.521,1.459 V 70.194 c 0,0.806 0.28,1.693 0.735,2.487 0.455,0.794 1.085,1.494 1.786,1.891 L -2.533,180.362 C -1.132,181.179 0,180.525 0,178.903 Z m 6.115,188.314 c -0.011,0.105 -0.035,0.222 -0.058,0.315 -0.257,1.436 -1.261,2.965 -2.44,3.654 l -4.435,2.556 c -1.39,0.806 -3.654,0.806 -5.055,0 L -199.949,82.789 c -0.7,-0.409 -1.331,-1.097 -1.798,-1.891 -0.455,-0.794 -0.735,-1.681 -0.735,-2.486 v -191.266 c 0,-1.61 1.132,-3.571 2.533,-4.376 l 4.424,-2.557 c 1.213,-0.7 3.093,-0.794 4.47,-0.268 0.058,0.023 0.117,0.046 0.176,0.07 0.128,0.047 0.268,0.116 0.408,0.198 l 56.156,32.414 137.932,79.636 c 1.389,0.805 2.522,2.766 2.522,4.377 v 191.265 c 0,0.14 -0.012,0.281 -0.024,0.409"
       style="fill:#fafafa;fill-opacity:1;fill-rule:nonzero;stroke:none"
       transform="matrix(1.3333333,0,0,-1.3333333,421.08987,359.4108)"
       clip-path="url(#clipPath44)" />
    <path
       id="path45"
       d="M 0,0 C -0.14,-0.082 -0.28,-0.151 -0.408,-0.198 -0.467,-0.222 -0.525,-0.245 -0.583,-0.268 -1.961,-0.793 -3.84,-0.7 -5.054,0 l -4.424,2.557 c -1.4,0.805 -2.533,2.766 -2.533,4.377 v 191.265 c 0,0.805 0.281,1.693 0.736,2.487 2.777,-1.6 5.987,-3.456 9.478,-5.475 1.54,-0.887 3.128,-1.798 4.75,-2.743 -0.455,-0.794 -0.735,-1.681 -0.735,-2.487 V 11.079 C 2.218,9.468 3.35,8.814 4.739,9.62 Z"
       style="fill:#f0f0f0;fill-opacity:1;fill-rule:nonzero;stroke:none"
       transform="matrix(1.3333333,0,0,-1.3333333,167.12827,519.12693)"
       clip-path="url(#clipPath46)" />
    <path
       id="path47"
       d="m 0,0 c 0,-1.611 -1.132,-3.572 -2.533,-4.377 l -183.199,-105.79 c -1.389,-0.806 -2.521,-0.152 -2.521,1.459 V 70.194 c 0,0.806 0.28,1.693 0.735,2.487 0.455,0.794 1.085,1.494 1.786,1.891 L -2.533,180.362 C -1.132,181.179 0,180.525 0,178.903 Z m 6.115,188.314 c -0.011,0.105 -0.035,0.222 -0.058,0.315 -0.304,1.062 -1.285,1.413 -2.44,0.736 L -190.471,77.303 c -0.7,-0.397 -1.331,-1.097 -1.798,-1.879 -0.455,-0.794 -0.735,-1.693 -0.735,-2.498 l 0.012,-191.254 c 0,-1.377 0.828,-2.054 1.937,-1.727 0.058,0.023 0.117,0.046 0.176,0.07 0.128,0.047 0.268,0.116 0.408,0.198 L 3.617,-7.737 c 1.389,0.805 2.522,2.766 2.522,4.377 v 191.265 c 0,0.14 -0.012,0.281 -0.024,0.409"
       style="fill:#f5f5f5;fill-opacity:1;fill-rule:nonzero;stroke:none"
       transform="matrix(1.3333333,0,0,-1.3333333,421.08987,359.4108)"
       clip-path="url(#clipPath48)" />
    <path
       id="path49"
       d="m 0,0 4.795,8.137 -8.206,4.782 c -10e-4,0 -0.002,10e-4 -0.003,0.002 l -0.007,0.003 v 0 c -2.404,1.384 -5.725,1.182 -9.391,-0.935 -7.34,-4.239 -13.292,-14.546 -13.292,-23.023 0,-4.18 1.452,-7.127 3.798,-8.54 l -0.004,-0.006 0.075,-0.042 c 0.016,-0.01 0.033,-0.02 0.05,-0.029 l 7.901,-4.595 4.575,7.767 C -4.996,-12.455 -1.269,-6.109 0,0"
       style="fill:#ebebeb;fill-opacity:1;fill-rule:nonzero;stroke:none"
       transform="matrix(1.3333333,0,0,-1.3333333,384.0912,184.26427)"
       clip-path="url(#clipPath50)" />
    <path
       id="path51"
       d="M 0,0 C 7.341,4.238 13.293,0.803 13.293,-7.674 13.293,-16.151 7.342,-26.459 0,-30.697 -7.341,-34.936 -13.292,-31.5 -13.292,-23.023 -13.292,-14.546 -7.341,-4.238 0,0"
       style="fill:#f5f5f5;fill-opacity:1;fill-rule:nonzero;stroke:none"
       transform="matrix(1.3333333,0,0,-1.3333333,377.74613,174.52733)"
       clip-path="url(#clipPath52)" />
    <path
       id="path53"
       d="m 0,0 v -182.04 l -184.921,-106.764 4.171,-8.542 180.75,104.355 8.084,-0.75 V -0.785 Z"
       style="fill:#e0e0e0;fill-opacity:1;fill-rule:nonzero;stroke:none"
       transform="matrix(1.3333333,0,0,-1.3333333,440.9792,129.61133)"
       clip-path="url(#clipPath54)" />
    <path
       id="path55"
       d="M 0,0 1.511,2.107 -8.048,7.63 -8.114,7.668 -8.118,7.662 c -1.429,0.806 -3.306,0.411 -4.248,-1.039 l -26.339,-40.552 -27.291,23.634 1.129,1.692 -9.46,5.464 -0.008,-0.011 c -1.435,0.873 -3.348,0.5 -4.314,-0.95 l -69.108,-103.74 0.005,-74.272 9.479,-5.478 170.689,104.024 0.001,52.375 z"
       style="fill:#e6e6e6;fill-opacity:1;fill-rule:nonzero;stroke:none"
       transform="matrix(1.3333333,0,0,-1.3333333,391.43227,263.2272)"
       clip-path="url(#clipPath56)" />
    <path
       id="path57"
       d="m 0,0 -0.001,74.274 69.108,103.741 c 1.068,1.603 3.3,1.905 4.756,0.644 l 35.188,-30.473 26.338,40.551 c 1.095,1.685 3.453,1.955 4.901,0.562 l 39.883,-38.376 V 107.16 c 0,-1.941 -1.035,-3.735 -2.716,-4.705 z"
       style="fill:#ebebeb;fill-opacity:1;fill-rule:nonzero;stroke:none"
       transform="matrix(1.3333333,0,0,-1.3333333,207.0684,513.34707)"
       clip-path="url(#clipPath58)" />
    <path
       id="path59"
       d="M 0,0 14.225,-12.319 1.777,2.737 Z"
       style="fill:#e6e6e6;fill-opacity:1;fill-rule:nonzero;stroke:none"
       transform="matrix(1.3333333,0,0,-1.3333333,352.47,315.76627)"
       clip-path="url(#clipPath60)" />
    <path
       id="path61"
       d="m 0,0 c 0,-1.611 -1.132,-3.572 -2.533,-4.377 l -133.284,-76.565 -49.915,-29.225 c -1.389,-0.806 -2.521,-0.152 -2.521,1.459 V 70.194 c 0,0.806 0.28,1.693 0.735,2.487 0.455,0.794 1.085,1.494 1.786,1.891 L -2.533,180.362 C -1.132,181.179 0,180.525 0,178.903 Z m 6.115,188.314 c -0.011,0.105 -0.035,0.222 -0.058,0.315 -0.257,1.436 -1.261,2.965 -2.44,3.654 l -4.435,2.556 c -1.39,0.806 -3.654,0.806 -5.055,0 L -199.949,82.789 c -0.7,-0.409 -1.331,-1.097 -1.798,-1.891 -0.455,-0.794 -0.735,-1.681 -0.735,-2.486 v -191.266 c 0,-1.61 1.132,-3.571 2.533,-4.376 l 4.424,-2.557 c 1.213,-0.7 3.093,-0.794 4.47,-0.268 0.058,0.023 0.117,0.046 0.176,0.07 0.128,0.047 0.268,0.116 0.408,0.198 l 56.156,32.414 137.932,79.636 c 1.389,0.805 2.522,2.766 2.522,4.377 v 191.265 c 0,0.14 -0.012,0.281 -0.024,0.409"
       style="fill:#f0f0f0;fill-opacity:1;fill-rule:nonzero;stroke:none"
       transform="matrix(1.3333333,0,0,-1.3333333,451.75653,376.74413)"
       clip-path="url(#clipPath62)" />
    <path
       id="path63"
       d="M 0,0 C -0.14,-0.082 -0.28,-0.151 -0.408,-0.198 -0.467,-0.222 -0.525,-0.245 -0.583,-0.268 -1.961,-0.793 -3.84,-0.7 -5.054,0 l -4.424,2.557 c -1.4,0.805 -2.533,2.766 -2.533,4.377 v 191.265 c 0,0.805 0.281,1.693 0.736,2.487 2.777,-1.6 5.987,-3.456 9.478,-5.475 1.54,-0.887 3.128,-1.798 4.75,-2.743 -0.455,-0.794 -0.735,-1.681 -0.735,-2.487 V 11.079 C 2.218,9.468 3.35,8.814 4.739,9.62 Z"
       style="fill:#e0e0e0;fill-opacity:1;fill-rule:nonzero;stroke:none"
       transform="matrix(1.3333333,0,0,-1.3333333,197.79493,536.46027)"
       clip-path="url(#clipPath64)" />
    <path
       id="path65"
       d="m 0,0 c 0,-1.611 -1.132,-3.572 -2.533,-4.377 l -183.199,-105.79 c -1.389,-0.806 -2.521,-0.152 -2.521,1.459 V 70.194 c 0,0.806 0.28,1.693 0.735,2.487 0.455,0.794 1.085,1.494 1.786,1.891 L -2.533,180.362 C -1.132,181.179 0,180.525 0,178.903 Z m 6.115,188.314 c -0.011,0.105 -0.035,0.222 -0.058,0.315 -0.304,1.062 -1.285,1.413 -2.44,0.736 L -190.471,77.303 c -0.7,-0.397 -1.331,-1.097 -1.798,-1.879 -0.455,-0.794 -0.735,-1.693 -0.735,-2.498 l 0.012,-191.254 c 0,-1.377 0.828,-2.054 1.937,-1.727 0.058,0.023 0.117,0.046 0.176,0.07 0.128,0.047 0.268,0.116 0.408,0.198 L 3.617,-7.737 c 1.389,0.805 2.522,2.766 2.522,4.377 v 191.265 c 0,0.14 -0.012,0.281 -0.024,0.409"
       style="fill:#ebebeb;fill-opacity:1;fill-rule:nonzero;stroke:none"
       transform="matrix(1.3333333,0,0,-1.3333333,451.75653,376.74413)"
       clip-path="url(#clipPath66)" />
    <path
       id="path67"
       d="m 0,0 4.795,8.137 -8.206,4.782 c -10e-4,0 -0.002,10e-4 -0.003,0.002 l -0.007,0.003 v 0 c -2.404,1.384 -5.725,1.182 -9.391,-0.935 -7.34,-4.239 -13.292,-14.546 -13.292,-23.023 0,-4.18 1.452,-7.127 3.798,-8.54 l -0.004,-0.006 0.075,-0.042 c 0.016,-0.01 0.033,-0.02 0.05,-0.029 l 7.901,-4.595 4.575,7.767 C -4.996,-12.455 -1.269,-6.109 0,0"
       style="fill:#e6e6e6;fill-opacity:1;fill-rule:nonzero;stroke:none"
       transform="matrix(1.3333333,0,0,-1.3333333,414.75787,201.5976)"
       clip-path="url(#clipPath68)" />
    <path
       id="path69"
       d="M 0,0 C 7.341,4.238 13.293,0.803 13.293,-7.674 13.293,-16.151 7.342,-26.459 0,-30.697 -7.341,-34.936 -13.292,-31.5 -13.292,-23.023 -13.292,-14.546 -7.341,-4.238 0,0"
       style="fill:#ebebeb;fill-opacity:1;fill-rule:nonzero;stroke:none"
       transform="matrix(1.3333333,0,0,-1.3333333,408.4128,191.86067)"
       clip-path="url(#clipPath70)" />
  </g>
  <g
     id="layer-MC4"
     inkscape:groupmode="layer"
     inkscape:label="Character">
    <path
       id="path71"
       d="m 0,0 v -182.04 l -184.921,-106.764 4.171,-8.542 180.75,104.355 8.084,-0.75 V -0.785 Z"
       style="fill:#263238;fill-opacity:1;fill-rule:nonzero;stroke:none"
       transform="matrix(1.3333333,0,0,-1.3333333,472.9792,148.278)" />
    <path
       id="path72"
       d="M 0,0 1.511,2.107 -8.048,7.63 -8.114,7.668 -8.118,7.662 c -1.429,0.806 -3.306,0.411 -4.248,-1.039 l -26.339,-40.552 -27.291,23.634 1.129,1.692 -9.46,5.464 -0.008,-0.011 c -1.435,0.873 -3.348,0.5 -4.314,-0.95 l -69.108,-103.74 0.005,-74.272 9.479,-5.478 170.689,104.024 0.001,52.375 z"
       style="fill:#38424e;fill-opacity:1;fill-rule:nonzero;stroke:none"
       transform="matrix(1.3333333,0,0,-1.3333333,423.43227,281.89387)"
       clip-path="url(#clipPath73)" />
    <g
       opacity="0.149994"
       id="g75"
       clip-path="url(#clipPath76)"
       transform="translate(0.811728,0.367177)">
      <path
         d="M 0,0 1.511,2.107 -8.048,7.63 -8.114,7.668 -8.118,7.662 c -1.429,0.806 -3.306,0.411 -4.248,-1.039 l -26.339,-40.552 -27.291,23.634 1.129,1.692 -9.46,5.464 -0.008,-0.011 c -1.435,0.873 -3.348,0.5 -4.314,-0.95 l -69.108,-103.74 0.005,-74.272 9.479,-5.478 170.689,104.024 0.001,52.375 z"
         style="fill:#000000;fill-opacity:1;fill-rule:nonzero;stroke:none"
         transform="matrix(1.3333333,0,0,-1.3333333,423.43227,281.89387)"
         clip-path="url(#clipPath74)"
         id="path75" />
    </g>
    <path
       id="path77"
       d="M 0,0 -0.001,74.274 28.989383,117.79271 69.107,178.015 c 1.068,1.603 3.3,1.905 4.756,0.644 l 35.188,-30.473 26.338,40.551 c 1.095,1.685 3.453,1.955 4.901,0.562 l 39.883,-38.376 V 107.16 c 0,-1.941 -1.035,-3.735 -2.716,-4.705 z"
       style="fill:#475464;fill-opacity:1;fill-rule:nonzero;stroke:none"
       transform="matrix(1.3333333,0,0,-1.3333333,239.0684,532.01373)"
       clip-path="url(#clipPath78)"
       sodipodi:nodetypes="cccccccccscc" />
    <g
       opacity="0.149994"
       id="g80"
       clip-path="url(#clipPath81)">
      <path
         d="M 0,0 14.225,-12.319 1.777,2.737 Z"
         style="fill:#000000;fill-opacity:1;fill-rule:nonzero;stroke:none"
         transform="matrix(1.3333333,0,0,-1.3333333,384.47,334.43293)"
         clip-path="url(#clipPath79)"
         id="path80" />
    </g>
    <path
       id="path82"
       d="m 0,0 c 0,-1.611 -1.132,-3.572 -2.533,-4.377 l -133.284,-76.565 -49.915,-29.225 c -1.389,-0.806 -2.521,-0.152 -2.521,1.459 V 70.194 c 0,0.806 0.28,1.693 0.735,2.487 0.455,0.794 1.085,1.494 1.786,1.891 L -2.533,180.362 C -1.132,181.179 0,180.525 0,178.903 Z m 6.115,188.314 c -0.011,0.105 -0.035,0.222 -0.058,0.315 -0.257,1.436 -1.261,2.965 -2.44,3.654 l -4.435,2.556 c -1.39,0.806 -3.654,0.806 -5.055,0 L -199.949,82.789 c -0.7,-0.409 -1.331,-1.097 -1.798,-1.891 -0.455,-0.794 -0.735,-1.681 -0.735,-2.486 v -191.266 c 0,-1.61 1.132,-3.571 2.533,-4.376 l 4.424,-2.557 c 1.213,-0.7 3.093,-0.794 4.47,-0.268 0.058,0.023 0.117,0.046 0.176,0.07 0.128,0.047 0.268,0.116 0.408,0.198 l 56.156,32.414 137.932,79.636 c 1.389,0.805 2.522,2.766 2.522,4.377 v 191.265 c 0,0.14 -0.012,0.281 -0.024,0.409"
       style="fill:#455a64;fill-opacity:1;fill-rule:nonzero;stroke:none"
       transform="matrix(1.3333333,0,0,-1.3333333,483.75653,395.4108)"
       clip-path="url(#clipPath83)" />
    <path
       id="path84"
       d="M 0,0 C -0.14,-0.082 -0.28,-0.151 -0.408,-0.198 -0.467,-0.222 -0.525,-0.245 -0.583,-0.268 -1.961,-0.793 -3.84,-0.7 -5.054,0 l -4.424,2.557 c -1.4,0.805 -2.533,2.766 -2.533,4.377 v 191.265 c 0,0.805 0.281,1.693 0.736,2.487 2.777,-1.6 5.987,-3.456 9.478,-5.475 1.54,-0.887 3.128,-1.798 4.75,-2.743 -0.455,-0.794 -0.735,-1.681 -0.735,-2.487 V 11.079 C 2.218,9.468 3.35,8.814 4.739,9.62 Z"
       style="fill:#263238;fill-opacity:1;fill-rule:nonzero;stroke:none"
       transform="matrix(1.3333333,0,0,-1.3333333,229.79493,555.12693)"
       clip-path="url(#clipPath85)" />
    <path
       id="path86"
       d="m 0,0 c 0,-1.611 -1.132,-3.572 -2.533,-4.377 l -183.199,-105.79 c -1.389,-0.806 -2.521,-0.152 -2.521,1.459 V 70.194 c 0,0.806 0.28,1.693 0.735,2.487 0.455,0.794 1.085,1.494 1.786,1.891 L -2.533,180.362 C -1.132,181.179 0,180.525 0,178.903 Z m 6.115,188.314 c -0.011,0.105 -0.035,0.222 -0.058,0.315 -0.304,1.062 -1.285,1.413 -2.44,0.736 L -190.471,77.303 c -0.7,-0.397 -1.331,-1.097 -1.798,-1.879 -0.455,-0.794 -0.735,-1.693 -0.735,-2.498 l 0.012,-191.254 c 0,-1.377 0.828,-2.054 1.937,-1.727 0.058,0.023 0.117,0.046 0.176,0.07 0.128,0.047 0.268,0.116 0.408,0.198 L 3.617,-7.737 c 1.389,0.805 2.522,2.766 2.522,4.377 v 191.265 c 0,0.14 -0.012,0.281 -0.024,0.409"
       style="fill:#37474f;fill-opacity:1;fill-rule:nonzero;stroke:none"
       transform="matrix(1.3333333,0,0,-1.3333333,483.75653,395.4108)"
       clip-path="url(#clipPath87)" />
    <path
       id="path88"
       d="m 0,0 4.795,8.137 -8.206,4.782 c -10e-4,0 -0.002,10e-4 -0.003,0.002 l -0.007,0.003 v 0 c -2.404,1.384 -5.725,1.182 -9.391,-0.935 -7.34,-4.239 -13.292,-14.546 -13.292,-23.023 0,-4.18 1.452,-7.127 3.798,-8.54 l -0.004,-0.006 0.075,-0.042 c 0.016,-0.01 0.033,-0.02 0.05,-0.029 l 7.901,-4.595 4.575,7.767 C -4.996,-12.455 -1.269,-6.109 0,0"
       style="fill:#333c4a;fill-opacity:1;fill-rule:nonzero;stroke:none"
       transform="matrix(1.3333333,0,0,-1.3333333,446.75787,220.26427)"
       clip-path="url(#clipPath89)" />
    <g
       opacity="0.149994"
       id="g91"
       clip-path="url(#clipPath92)"
       transform="translate(1.663398,0.960268)">
      <path
         d="m 0,0 4.795,8.137 -8.206,4.782 c -10e-4,0 -0.002,10e-4 -0.003,0.002 l -0.007,0.003 v 0 c -2.404,1.384 -5.725,1.182 -9.391,-0.935 -7.34,-4.239 -13.292,-14.546 -13.292,-23.023 0,-4.18 1.452,-7.127 3.798,-8.54 l -0.004,-0.006 0.075,-0.042 c 0.016,-0.01 0.033,-0.02 0.05,-0.029 l 7.901,-4.595 4.575,7.767 C -4.996,-12.455 -1.269,-6.109 0,0"
         style="fill:#000000;fill-opacity:1;fill-rule:nonzero;stroke:none"
         transform="matrix(1.3333333,0,0,-1.3333333,446.75787,220.26427)"
         clip-path="url(#clipPath90)"
         id="path91" />
    </g>
    <path
       id="path93"
       d="M 0,0 C 7.341,4.238 13.293,0.803 13.293,-7.674 13.293,-16.151 7.342,-26.459 0,-30.697 -7.341,-34.936 -13.292,-31.5 -13.292,-23.023 -13.292,-14.546 -7.341,-4.238 0,0"
       style="fill:#475464;fill-opacity:1;fill-rule:nonzero;stroke:none"
       transform="matrix(1.3333333,0,0,-1.3333333,440.4128,210.52733)"
       clip-path="url(#clipPath94)" />
  </g>
</svg>
