<svg xmlns:xlink="http://www.w3.org/1999/xlink" width="60" xmlns="http://www.w3.org/2000/svg" height="60" id="screenshot-2ba07862-3b7d-80ff-8004-130a360a78d9" viewBox="0 0 60 60" style="-webkit-print-color-adjust: exact;" fill="none" version="1.1"><g id="shape-2ba07862-3b7d-80ff-8004-130a360a78d9" width="256" height="256" rx="0" ry="0" style="fill: rgb(0, 0, 0);"><g id="shape-2ba07862-3b7d-80ff-8004-130a360a78e0"><g class="fills" id="fills-2ba07862-3b7d-80ff-8004-130a360a78e0"><path fill="none" stroke-linecap="round" stroke-linejoin="round" stroke-miterlimit="10" rx="0" ry="0" d="M30.507,53.200C45.488,52.366,55.976,40.999,53.302,25.895C51.125,13.597,39.071,5.361,26.879,7.010C14.520,8.681,5.013,20.127,6.419,32.579C7.752,43.796,14.652,49.039,20.407,51.408C21.747,51.959,23.548,52.763,24.157,52.633C24.765,52.503,24.570,49.129,24.570,47.503C20.820,48.079,19.537,46.603,18.740,45.730C17.836,44.741,17.304,43.723,16.381,42.229C15.458,40.735,13.788,41.087,13.613,40.222C13.437,39.358,17.128,39.592,19.780,42.859C21.699,45.237,23.747,44.520,24.848,43.841C24.895,43.344,25.009,42.857,25.185,42.390C25.412,41.791,26.035,41.428,25.937,41.018C25.839,40.608,20.827,40.883,17.968,36.878C15.904,33.984,15.829,30.560,16.640,28.010C17.184,26.300,18.092,25.094,18.710,24.397C18.324,23.571,18.118,22.672,18.105,21.760C18.092,20.789,18.299,19.828,18.710,18.948C20.960,19.014,23.135,19.771,24.941,21.116C26.535,20.580,28.201,20.290,29.882,20.256C31.765,20.219,33.641,20.503,35.429,21.096C36.331,20.289,37.378,19.659,38.515,19.241C39.381,18.923,40.289,18.732,41.210,18.674C41.681,19.566,41.935,20.556,41.952,21.564C41.967,22.506,41.773,23.440,41.386,24.298C42.058,25.109,43.119,26.613,43.613,28.750C43.789,29.512,44.752,33.668,41.974,37.244C39.065,40.988,34.225,40.414,34.007,40.931C33.788,41.448,34.936,42.406,35.475,44.417C36.015,46.428,35.786,50.272,35.786,50.272" style="fill: none;"/></g><g id="strokes-2ba07862-3b7d-80ff-8004-130a360a78e0" class="strokes"><g class="stroke-shape"><path stroke-linecap="round" stroke-linejoin="round" stroke-miterlimit="10" rx="0" ry="0" d="M30.507,53.200C45.488,52.366,55.976,40.999,53.302,25.895C51.125,13.597,39.071,5.361,26.879,7.010C14.520,8.681,5.013,20.127,6.419,32.579C7.752,43.796,14.652,49.039,20.407,51.408C21.747,51.959,23.548,52.763,24.157,52.633C24.765,52.503,24.570,49.129,24.570,47.503C20.820,48.079,19.537,46.603,18.740,45.730C17.836,44.741,17.304,43.723,16.381,42.229C15.458,40.735,13.788,41.087,13.613,40.222C13.437,39.358,17.128,39.592,19.780,42.859C21.699,45.237,23.747,44.520,24.848,43.841C24.895,43.344,25.009,42.857,25.185,42.390C25.412,41.791,26.035,41.428,25.937,41.018C25.839,40.608,20.827,40.883,17.968,36.878C15.904,33.984,15.829,30.560,16.640,28.010C17.184,26.300,18.092,25.094,18.710,24.397C18.324,23.571,18.118,22.672,18.105,21.760C18.092,20.789,18.299,19.828,18.710,18.948C20.960,19.014,23.135,19.771,24.941,21.116C26.535,20.580,28.201,20.290,29.882,20.256C31.765,20.219,33.641,20.503,35.429,21.096C36.331,20.289,37.378,19.659,38.515,19.241C39.381,18.923,40.289,18.732,41.210,18.674C41.681,19.566,41.935,20.556,41.952,21.564C41.967,22.506,41.773,23.440,41.386,24.298C42.058,25.109,43.119,26.613,43.613,28.750C43.789,29.512,44.752,33.668,41.974,37.244C39.065,40.988,34.225,40.414,34.007,40.931C33.788,41.448,34.936,42.406,35.475,44.417C36.015,46.428,35.786,50.272,35.786,50.272" style="fill: none; stroke-width: 2; stroke: rgb(27, 31, 36); stroke-opacity: 1;"/></g></g></g></g></svg>