<svg xmlns:xlink="http://www.w3.org/1999/xlink" width="60" xmlns="http://www.w3.org/2000/svg" height="60" id="screenshot-a0e75570-7f7f-802c-8004-148a917f0f9d" viewBox="0 0 60 60" style="-webkit-print-color-adjust: exact;" fill="none" version="1.1"><g id="shape-a0e75570-7f7f-802c-8004-148a917f0f9d" rx="0" ry="0" style="fill: rgb(0, 0, 0);"><g id="shape-a0e75570-7f7f-802c-8004-148a917f0f9f"><g class="fills" id="fills-a0e75570-7f7f-802c-8004-148a917f0f9f"><path rx="0" ry="0" d="M48.750,8.438L11.250,8.438C9.697,8.439,8.439,9.697,8.438,11.250L8.438,48.750C8.439,50.303,9.697,51.561,11.250,51.563L48.750,51.563C50.303,51.561,51.561,50.303,51.563,48.750L51.563,11.250C51.561,9.697,50.303,8.439,48.750,8.438ZZM49.688,48.750C49.687,49.268,49.268,49.687,48.750,49.688L11.250,49.688C10.732,49.687,10.313,49.268,10.313,48.750L10.313,11.250C10.313,10.732,10.732,10.313,11.250,10.313L48.750,10.313C49.268,10.313,49.687,10.732,49.688,11.250ZM21.563,26.250L21.563,41.250C21.563,41.768,21.143,42.188,20.625,42.188C20.107,42.188,19.688,41.768,19.688,41.250L19.688,26.250C19.688,25.732,20.107,25.313,20.625,25.313C21.143,25.313,21.563,25.732,21.563,26.250ZZM42.188,32.813L42.188,41.250C42.188,41.768,41.768,42.188,41.250,42.188C40.732,42.188,40.313,41.768,40.313,41.250L40.313,32.813C40.313,29.706,37.794,27.188,34.688,27.188C31.581,27.188,29.063,29.706,29.063,32.813L29.063,41.250C29.063,41.768,28.643,42.188,28.125,42.188C27.607,42.188,27.188,41.768,27.188,41.250L27.188,26.250C27.188,25.732,27.607,25.313,28.125,25.313C28.643,25.313,29.063,25.732,29.063,26.250L29.063,27.860C31.122,25.516,34.419,24.694,37.339,25.795C40.258,26.897,42.189,29.692,42.188,32.813ZZM22.500,18.750C22.500,19.786,21.661,20.625,20.625,20.625C19.589,20.625,18.750,19.786,18.750,18.750C18.750,17.714,19.589,16.875,20.625,16.875C21.660,16.876,22.499,17.715,22.500,18.750ZZ" style="fill: rgb(132, 132, 132); fill-opacity: 1;"/></g></g></g></svg>